<svg width="134" height="22" viewBox="0 0 134 22" fill="none" xmlns="http://www.w3.org/2000/svg">
<g id="Space-logo">
<g id="S">
<path id="Vector" d="M14.9857 20.2952C6.15745 20.2952 1.92071 18.286 1.65183 13.9697L1.64062 13.8024H9.3448V13.9618C9.3448 15.0835 11.1485 15.6523 14.7037 15.6523C19.1291 15.6523 19.5006 15.1137 19.5006 14.5624C19.5006 13.7977 19.0469 13.6176 13.8448 13.2798C9.60061 13.0137 6.75122 12.4704 4.8784 11.5686C2.89727 10.6142 1.93378 9.19776 1.93378 7.2348C1.93378 3.72951 6.17798 1.71875 13.5778 1.71875C23.7654 1.71875 26.1461 5.00097 26.3478 7.75422L26.3608 7.92311H18.6567V7.76378C18.6567 7.11052 18.0797 6.36166 13.5797 6.36166C10.0768 6.36166 9.62862 6.84125 9.62862 7.2587C9.62862 7.83866 10.1365 8.13183 15.0044 8.49352C21.816 8.99222 27.1955 9.38736 27.1955 14.3219C27.1955 18.4533 23.4312 20.2952 14.9876 20.2952H14.9857ZM2.03834 14.1211C2.22133 16.1797 3.37154 17.6455 5.55246 18.5999C7.66616 19.5256 10.7508 19.9749 14.9857 19.9749C23.1697 19.9749 26.8202 18.2318 26.8202 14.3203C26.8202 9.902 22.3164 9.34912 14.9689 8.80899C10.2672 8.45846 9.25144 8.18282 9.25144 7.2571C9.25144 6.39353 10.5043 6.04141 13.5759 6.04141C17.2245 6.04141 18.8751 6.50984 19.017 7.60285H25.9575C25.5654 3.96054 21.2913 2.03582 13.5759 2.03582C6.41512 2.03741 2.30722 3.93186 2.30722 7.2348C2.30722 10.8341 5.5506 12.4402 13.8747 12.9612C18.9685 13.2926 19.876 13.4408 19.876 14.5608C19.876 15.614 18.5708 15.9693 14.7056 15.9693C11.057 15.9693 9.13194 15.3479 8.98256 14.1195H2.03834V14.1211Z" fill="black" stroke="black" stroke-width="0.4"/>
<path id="Vector_2" d="M1.84025 14.7309C2.30431 14.7309 2.6805 14.4098 2.6805 14.0139C2.6805 13.6179 2.30431 13.2969 1.84025 13.2969C1.37619 13.2969 1 13.6179 1 14.0139C1 14.4098 1.37619 14.7309 1.84025 14.7309Z" fill="black" stroke="black" stroke-width="0.4"/>
<path id="Vector_3" d="M9.09806 14.7309C9.56212 14.7309 9.93832 14.4098 9.93832 14.0139C9.93832 13.6179 9.56212 13.2969 9.09806 13.2969C8.63401 13.2969 8.25781 13.6179 8.25781 14.0139C8.25781 14.4098 8.63401 14.7309 9.09806 14.7309Z" fill="black" stroke="black" stroke-width="0.4"/>
<path id="Vector_4" d="M2.11369 7.78554C2.57775 7.78554 2.95394 7.46454 2.95394 7.06855C2.95394 6.67257 2.57775 6.35156 2.11369 6.35156C1.64963 6.35156 1.27344 6.67257 1.27344 7.06855C1.27344 7.46454 1.64963 7.78554 2.11369 7.78554Z" fill="black" stroke="black" stroke-width="0.4"/>
<path id="Vector_5" d="M27.0278 14.9809C27.4918 14.9809 27.868 14.6598 27.868 14.2639C27.868 13.8679 27.4918 13.5469 27.0278 13.5469C26.5637 13.5469 26.1875 13.8679 26.1875 14.2639C26.1875 14.6598 26.5637 14.9809 27.0278 14.9809Z" fill="black" stroke="black" stroke-width="0.4"/>
<path id="Vector_6" d="M18.9496 8.50429C19.4137 8.50429 19.7899 8.18329 19.7899 7.7873C19.7899 7.39132 19.4137 7.07031 18.9496 7.07031C18.4856 7.07031 18.1094 7.39132 18.1094 7.7873C18.1094 8.18329 18.4856 8.50429 18.9496 8.50429Z" fill="black" stroke="black" stroke-width="0.4"/>
<path id="Vector_7" d="M14.0903 2.59023C14.5543 2.59023 14.9305 2.26922 14.9305 1.87324C14.9305 1.47726 14.5543 1.15625 14.0903 1.15625C13.6262 1.15625 13.25 1.47726 13.25 1.87324C13.25 2.26922 13.6262 2.59023 14.0903 2.59023Z" fill="black" stroke="black" stroke-width="0.4"/>
<path id="Vector_8" d="M14.0903 20.8246C14.5543 20.8246 14.9305 20.5036 14.9305 20.1076C14.9305 19.7116 14.5543 19.3906 14.0903 19.3906C13.6262 19.3906 13.25 19.7116 13.25 20.1076C13.25 20.5036 13.6262 20.8246 14.0903 20.8246Z" fill="black" stroke="black" stroke-width="0.4"/>
<path id="Vector_9" d="M26.0746 8.50429C26.5387 8.50429 26.9149 8.18329 26.9149 7.7873C26.9149 7.39132 26.5387 7.07031 26.0746 7.07031C25.6106 7.07031 25.2344 7.39132 25.2344 7.7873C25.2344 8.18329 25.6106 8.50429 26.0746 8.50429Z" fill="black" stroke="black" stroke-width="0.4"/>
</g>
<g id="C">
<path id="Vector_10" d="M96.2067 20.2936C88.0992 20.2936 83.6328 16.9859 83.6328 10.9823C83.6328 7.94701 84.7513 5.60803 86.9583 4.02905C89.1001 2.49629 92.2108 1.71875 96.2067 1.71875C103.663 1.71875 108.097 4.40508 108.695 9.2838L108.717 9.45906H100.871L100.839 9.33319C100.574 8.29435 99.2036 7.08025 96.2086 7.08025C91.9625 7.08025 91.3276 9.52439 91.3276 10.9807C91.3276 12.437 91.9625 14.9289 96.2086 14.9289C99.2036 14.9289 100.576 13.6893 100.839 12.6282L100.871 12.5023H108.717L108.697 12.6776C108.099 17.5881 103.663 20.292 96.2086 20.292L96.2067 20.2936ZM96.2067 2.03582C88.2243 2.03582 84.0063 5.12844 84.0063 10.9807C84.0063 13.9299 85.0799 16.1988 87.1992 17.7236C89.2737 19.2165 92.3042 19.9749 96.2067 19.9749C103.354 19.9749 107.64 17.4368 108.301 12.8225H101.168C100.802 13.9697 99.3119 15.2492 96.2067 15.2492C92.8681 15.2492 90.9523 13.6941 90.9523 10.9823C90.9523 8.27045 92.8681 6.76318 96.2067 6.76318C99.3082 6.76318 100.8 8.01711 101.166 9.14199H108.299C107.64 4.55803 103.353 2.03741 96.2048 2.03741L96.2067 2.03582Z" fill="black" stroke="black" stroke-width="0.4"/>
<path id="Vector_11" d="M83.7778 12.1996C84.2418 12.1996 84.618 11.8786 84.618 11.4826C84.618 11.0866 84.2418 10.7656 83.7778 10.7656C83.3137 10.7656 82.9375 11.0866 82.9375 11.4826C82.9375 11.8786 83.3137 12.1996 83.7778 12.1996Z" fill="black" stroke="black" stroke-width="0.4"/>
<path id="Vector_12" d="M91.184 12.1996C91.6481 12.1996 92.0243 11.8786 92.0243 11.4826C92.0243 11.0866 91.6481 10.7656 91.184 10.7656C90.7199 10.7656 90.3438 11.0866 90.3438 11.4826C90.3438 11.8786 90.7199 12.1996 91.184 12.1996Z" fill="black" stroke="black" stroke-width="0.4"/>
<path id="Vector_13" d="M96.1528 2.43398C96.6168 2.43398 96.993 2.11297 96.993 1.71699C96.993 1.32101 96.6168 1 96.1528 1C95.6887 1 95.3125 1.32101 95.3125 1.71699C95.3125 2.11297 95.6887 2.43398 96.1528 2.43398Z" fill="black" stroke="black" stroke-width="0.4"/>
<path id="Vector_14" d="M96.1528 20.9105C96.6168 20.9105 96.993 20.5895 96.993 20.1936C96.993 19.7976 96.6168 19.4766 96.1528 19.4766C95.6887 19.4766 95.3125 19.7976 95.3125 20.1936C95.3125 20.5895 95.6887 20.9105 96.1528 20.9105Z" fill="black" stroke="black" stroke-width="0.4"/>
<path id="Vector_15" d="M100.934 13.3715C101.398 13.3715 101.774 13.0505 101.774 12.6545C101.774 12.2585 101.398 11.9375 100.934 11.9375C100.47 11.9375 100.094 12.2585 100.094 12.6545C100.094 13.0505 100.47 13.3715 100.934 13.3715Z" fill="black" stroke="black" stroke-width="0.4"/>
<path id="Vector_16" d="M100.934 10.0043C101.398 10.0043 101.774 9.68329 101.774 9.2873C101.774 8.89132 101.398 8.57031 100.934 8.57031C100.47 8.57031 100.094 8.89132 100.094 9.2873C100.094 9.68329 100.47 10.0043 100.934 10.0043Z" fill="black" stroke="black" stroke-width="0.4"/>
<path id="Vector_17" d="M108.473 13.3715C108.937 13.3715 109.313 13.0505 109.313 12.6545C109.313 12.2585 108.937 11.9375 108.473 11.9375C108.009 11.9375 107.633 12.2585 107.633 12.6545C107.633 13.0505 108.009 13.3715 108.473 13.3715Z" fill="black" stroke="black" stroke-width="0.4"/>
<path id="Vector_18" d="M108.473 10.0043C108.937 10.0043 109.313 9.68329 109.313 9.2873C109.313 8.89132 108.937 8.57031 108.473 8.57031C108.009 8.57031 107.633 8.89132 107.633 9.2873C107.633 9.68329 108.009 10.0043 108.473 10.0043Z" fill="black" stroke="black" stroke-width="0.4"/>
</g>
<g id="E">
<path id="Vector_19" d="M132.339 19.8094H111.133V2.19531H132.339V7.07882H118.544V8.56219H131.775V13.4457H118.544V14.9291H132.339V19.8126V19.8094ZM111.506 19.4907H131.965V15.2445H118.17V13.1238H131.402V8.87767H118.17V6.75697H131.965V2.51398H111.506V19.4907Z" fill="black" stroke="black" stroke-width="0.4"/>
<path id="Vector_20" d="M111.379 3.07461C111.843 3.07461 112.22 2.7536 112.22 2.35762C112.22 1.96163 111.843 1.64062 111.379 1.64062C110.915 1.64062 110.539 1.96163 110.539 2.35762C110.539 2.7536 110.915 3.07461 111.379 3.07461Z" fill="black" stroke="black" stroke-width="0.4"/>
<path id="Vector_21" d="M111.379 20.4496C111.843 20.4496 112.22 20.1286 112.22 19.7326C112.22 19.3366 111.843 19.0156 111.379 19.0156C110.915 19.0156 110.539 19.3366 110.539 19.7326C110.539 20.1286 110.915 20.4496 111.379 20.4496Z" fill="black" stroke="black" stroke-width="0.4"/>
<path id="Vector_22" d="M132.161 3.07461C132.625 3.07461 133.001 2.7536 133.001 2.35762C133.001 1.96163 132.625 1.64062 132.161 1.64062C131.697 1.64062 131.32 1.96163 131.32 2.35762C131.32 2.7536 131.697 3.07461 132.161 3.07461Z" fill="black" stroke="black" stroke-width="0.4"/>
<path id="Vector_23" d="M132.161 20.4496C132.625 20.4496 133.001 20.1286 133.001 19.7326C133.001 19.3366 132.625 19.0156 132.161 19.0156C131.697 19.0156 131.32 19.3366 131.32 19.7326C131.32 20.1286 131.697 20.4496 132.161 20.4496Z" fill="black" stroke="black" stroke-width="0.4"/>
<path id="Vector_24" d="M132.161 15.7777C132.625 15.7777 133.001 15.4567 133.001 15.0607C133.001 14.6648 132.625 14.3438 132.161 14.3438C131.697 14.3438 131.32 14.6648 131.32 15.0607C131.32 15.4567 131.697 15.7777 132.161 15.7777Z" fill="black" stroke="black" stroke-width="0.4"/>
<path id="Vector_25" d="M132.161 7.66054C132.625 7.66054 133.001 7.33954 133.001 6.94355C133.001 6.54757 132.625 6.22656 132.161 6.22656C131.697 6.22656 131.32 6.54757 131.32 6.94355C131.32 7.33954 131.697 7.66054 132.161 7.66054Z" fill="black" stroke="black" stroke-width="0.4"/>
<path id="Vector_26" d="M118.309 7.66054C118.773 7.66054 119.149 7.33954 119.149 6.94355C119.149 6.54757 118.773 6.22656 118.309 6.22656C117.845 6.22656 117.469 6.54757 117.469 6.94355C117.469 7.33954 117.845 7.66054 118.309 7.66054Z" fill="black" stroke="black" stroke-width="0.4"/>
<path id="Vector_27" d="M118.309 9.46523C118.773 9.46523 119.149 9.14422 119.149 8.74824C119.149 8.35226 118.773 8.03125 118.309 8.03125C117.845 8.03125 117.469 8.35226 117.469 8.74824C117.469 9.14422 117.845 9.46523 118.309 9.46523Z" fill="black" stroke="black" stroke-width="0.4"/>
<path id="Vector_28" d="M118.309 13.9652C118.773 13.9652 119.149 13.6442 119.149 13.2482C119.149 12.8523 118.773 12.5312 118.309 12.5312C117.845 12.5312 117.469 12.8523 117.469 13.2482C117.469 13.6442 117.845 13.9652 118.309 13.9652Z" fill="black" stroke="black" stroke-width="0.4"/>
<path id="Vector_29" d="M131.504 9.46523C131.968 9.46523 132.345 9.14422 132.345 8.74824C132.345 8.35226 131.968 8.03125 131.504 8.03125C131.04 8.03125 130.664 8.35226 130.664 8.74824C130.664 9.14422 131.04 9.46523 131.504 9.46523Z" fill="black" stroke="black" stroke-width="0.4"/>
<path id="Vector_30" d="M131.504 13.9652C131.968 13.9652 132.345 13.6442 132.345 13.2482C132.345 12.8523 131.968 12.5312 131.504 12.5312C131.04 12.5312 130.664 12.8523 130.664 13.2482C130.664 13.6442 131.04 13.9652 131.504 13.9652Z" fill="black" stroke="black" stroke-width="0.4"/>
<path id="Vector_31" d="M118.309 15.7777C118.773 15.7777 119.149 15.4567 119.149 15.0607C119.149 14.6648 118.773 14.3438 118.309 14.3438C117.845 14.3438 117.469 14.6648 117.469 15.0607C117.469 15.4567 117.845 15.7777 118.309 15.7777Z" fill="black" stroke="black" stroke-width="0.4"/>
</g>
<g id="Line">
<path id="Vector_32" d="M80.349 13.6836H57.4531V9.28125H80.349V13.6836ZM57.8266 13.3649H79.9756V9.59991H57.8266V13.3649Z" fill="black" stroke="black" stroke-width="0.4"/>
<path id="Vector_33" d="M57.6371 10.1605C58.1012 10.1605 58.4774 9.83954 58.4774 9.44355C58.4774 9.04757 58.1012 8.72656 57.6371 8.72656C57.1731 8.72656 56.7969 9.04757 56.7969 9.44355C56.7969 9.83954 57.1731 10.1605 57.6371 10.1605Z" fill="black" stroke="black" stroke-width="0.4"/>
<path id="Vector_34" d="M80.184 10.1605C80.6481 10.1605 81.0243 9.83954 81.0243 9.44355C81.0243 9.04757 80.6481 8.72656 80.184 8.72656C79.7199 8.72656 79.3438 9.04757 79.3438 9.44355C79.3438 9.83954 79.7199 10.1605 80.184 10.1605Z" fill="black" stroke="black" stroke-width="0.4"/>
<path id="Vector_35" d="M57.6371 14.2465C58.1012 14.2465 58.4774 13.9255 58.4774 13.5295C58.4774 13.1335 58.1012 12.8125 57.6371 12.8125C57.1731 12.8125 56.7969 13.1335 56.7969 13.5295C56.7969 13.9255 57.1731 14.2465 57.6371 14.2465Z" fill="black" stroke="black" stroke-width="0.4"/>
<path id="Vector_36" d="M80.184 14.2465C80.6481 14.2465 81.0243 13.9255 81.0243 13.5295C81.0243 13.1335 80.6481 12.8125 80.184 12.8125C79.7199 12.8125 79.3438 13.1335 79.3438 13.5295C79.3438 13.9255 79.7199 14.2465 80.184 14.2465Z" fill="black" stroke="black" stroke-width="0.4"/>
</g>
<g id="P">
<path id="Vector_37" d="M37.0438 19.8094H29.6328V2.19531H45.8665C51.0611 2.19531 54.1607 4.70637 54.1607 8.91272C54.1607 13.1191 51.0592 15.6301 45.8665 15.6301H37.0438V19.8094ZM30.0063 19.4907H36.6704V15.3115H45.8665C50.8258 15.3115 53.7872 12.9199 53.7872 8.91272C53.7872 4.90554 50.8258 2.51398 45.8665 2.51398H30.0063V19.4907ZM44.1766 10.5841H36.6704V7.23815H44.1766C45.4856 7.23815 46.8412 7.23815 46.8412 8.91113C46.8412 10.5841 45.4874 10.5841 44.1766 10.5841ZM37.0438 10.2654H44.1766C45.5061 10.2654 46.4677 10.2654 46.4677 8.91113C46.4677 7.55681 45.5061 7.55681 44.1766 7.55681H37.0438V10.2654Z" fill="black" stroke="black" stroke-width="0.4"/>
<path id="Vector_38" d="M29.8403 3.03554C30.3043 3.03554 30.6805 2.71454 30.6805 2.31855C30.6805 1.92257 30.3043 1.60156 29.8403 1.60156C29.3762 1.60156 29 1.92257 29 2.31855C29 2.71454 29.3762 3.03554 29.8403 3.03554Z" fill="black" stroke="black" stroke-width="0.4"/>
<path id="Vector_39" d="M29.8403 20.4027C30.3043 20.4027 30.6805 20.0817 30.6805 19.6857C30.6805 19.2898 30.3043 18.9688 29.8403 18.9688C29.3762 18.9688 29 19.2898 29 19.6857C29 20.0817 29.3762 20.4027 29.8403 20.4027Z" fill="black" stroke="black" stroke-width="0.4"/>
<path id="Vector_40" d="M36.8559 20.4027C37.3199 20.4027 37.6961 20.0817 37.6961 19.6857C37.6961 19.2898 37.3199 18.9688 36.8559 18.9688C36.3918 18.9688 36.0156 19.2898 36.0156 19.6857C36.0156 20.0817 36.3918 20.4027 36.8559 20.4027Z" fill="black" stroke="black" stroke-width="0.4"/>
<path id="Vector_41" d="M36.8559 16.184C37.3199 16.184 37.6961 15.863 37.6961 15.467C37.6961 15.071 37.3199 14.75 36.8559 14.75C36.3918 14.75 36.0156 15.071 36.0156 15.467C36.0156 15.863 36.3918 16.184 36.8559 16.184Z" fill="black" stroke="black" stroke-width="0.4"/>
<path id="Vector_42" d="M36.8559 11.0355C37.3199 11.0355 37.6961 10.7145 37.6961 10.3186C37.6961 9.92257 37.3199 9.60156 36.8559 9.60156C36.3918 9.60156 36.0156 9.92257 36.0156 10.3186C36.0156 10.7145 36.3918 11.0355 36.8559 11.0355Z" fill="black" stroke="black" stroke-width="0.4"/>
<path id="Vector_43" d="M46.5981 9.62929C47.0621 9.62929 47.4383 9.30829 47.4383 8.9123C47.4383 8.51632 47.0621 8.19531 46.5981 8.19531C46.134 8.19531 45.7578 8.51632 45.7578 8.9123C45.7578 9.30829 46.134 9.62929 46.5981 9.62929Z" fill="black" stroke="black" stroke-width="0.4"/>
<path id="Vector_44" d="M52.0278 5.06679C52.4918 5.06679 52.868 4.74579 52.868 4.3498C52.868 3.95382 52.4918 3.63281 52.0278 3.63281C51.5637 3.63281 51.1875 3.95382 51.1875 4.3498C51.1875 4.74579 51.5637 5.06679 52.0278 5.06679Z" fill="black" stroke="black" stroke-width="0.4"/>
<path id="Vector_45" d="M52.0278 14.2465C52.4918 14.2465 52.868 13.9255 52.868 13.5295C52.868 13.1335 52.4918 12.8125 52.0278 12.8125C51.5637 12.8125 51.1875 13.1335 51.1875 13.5295C51.1875 13.9255 51.5637 14.2465 52.0278 14.2465Z" fill="black" stroke="black" stroke-width="0.4"/>
<path id="Vector_46" d="M36.8559 8.18398C37.3199 8.18398 37.6961 7.86297 37.6961 7.46699C37.6961 7.07101 37.3199 6.75 36.8559 6.75C36.3918 6.75 36.0156 7.07101 36.0156 7.46699C36.0156 7.86297 36.3918 8.18398 36.8559 8.18398Z" fill="black" stroke="black" stroke-width="0.4"/>
</g>
</g>
</svg>
